<svg width="48" height="48" viewBox="0 0 48 48" fill="none" xmlns="http://www.w3.org/2000/svg">
<path d="M41.1429 0C44.925 0 48 3.075 48 6.85714V41.1429C48 44.925 44.925 48 41.1429 48H6.85714C3.075 48 0 44.925 0 41.1429V6.85714C0 3.075 3.075 0 6.85714 0H41.1429ZM18.6107 6.85714C15.075 6.85714 12.2036 9.72857 12.2036 13.2643C12.2036 15.5143 13.3607 17.4857 15.1179 18.6321C13.3607 19.7786 12.2036 21.75 12.2036 24C12.2036 26.25 13.3607 28.2321 15.1179 29.3679C13.3607 30.5143 12.2036 32.4857 12.2036 34.7357C12.2036 38.2821 15.1071 41.1429 18.6429 41.1429C22.2 41.1429 25.1357 38.2607 25.1357 34.6821V28.7143C26.2714 29.7643 27.7929 30.4071 29.4643 30.4071H29.5821C33.1179 30.4071 35.9893 27.5357 35.9893 24C35.9893 21.75 34.8321 19.7679 33.075 18.6321C34.8321 17.4857 35.9893 15.5143 35.9893 13.2643C35.9893 9.72857 33.1179 6.85714 29.5821 6.85714H18.6107ZM23.0679 30.4071V34.6821C23.0679 37.1036 21.075 39.075 18.6429 39.075C16.2429 39.075 14.2821 37.125 14.2821 34.7357C14.2821 32.3464 16.2214 30.4071 18.6 30.4071H23.0679ZM23.0679 19.6607V28.3286H18.6C16.2107 28.3179 14.2821 26.3786 14.2821 23.9893C14.2821 21.6 16.2214 19.65 18.6214 19.65H23.0786L23.0679 19.6607ZM29.5821 19.6607C31.9714 19.6607 33.9214 21.6 33.9214 24C33.9214 26.4 31.9821 28.3393 29.5821 28.3393H29.4643C27.075 28.3393 25.1357 26.4 25.1357 24C25.1357 21.6 27.075 19.6607 29.4643 19.6607H29.5821ZM23.0679 17.5929H18.6107C16.2214 17.5929 14.2714 15.6536 14.2714 13.2643C14.2714 10.875 16.2107 8.925 18.6107 8.925H23.0679V17.5929ZM29.5821 8.925C31.9714 8.925 33.9214 10.8643 33.9214 13.2643C33.9214 15.6643 31.9821 17.5929 29.5821 17.5929H25.1357V8.925H29.5821Z" fill="#D2A8E1"/>
</svg>
