<svg width="48" height="44" viewBox="0 0 48 44" fill="none" xmlns="http://www.w3.org/2000/svg">
<path d="M47.12 16.5487C46.295 13.514 44.7308 11.2256 41.3988 11.2256H37.1025V15.8808C37.1025 19.495 33.7597 22.5395 29.9456 22.5395H18.5031C15.3746 22.5395 12.7818 24.9948 12.7818 27.8724V37.8703C12.7818 40.7184 15.4817 42.388 18.5031 43.2031C22.1244 44.1754 25.6064 44.3522 29.9456 43.2031C32.8276 42.4371 35.6668 40.8952 35.6668 37.8703V33.8731H24.235V32.5374H41.3988C44.7308 32.5374 45.9629 30.4062 47.12 27.2144C48.32 23.9243 48.2664 20.7619 47.12 16.5487ZM30.6634 40.5318C29.8491 40.5809 29.067 40.2175 28.6385 39.5791C28.2206 38.9309 28.2206 38.1354 28.6385 37.4872C29.067 36.8489 29.8491 36.4855 30.6634 36.5346C31.4776 36.4855 32.2598 36.8489 32.6883 37.4872C33.1062 38.1354 33.1062 38.9309 32.6883 39.5791C32.2598 40.2175 31.4776 40.5809 30.6634 40.5318ZM17.9781 21.2235H29.4206C32.6026 21.2235 35.1418 18.8173 35.1418 15.8907V5.88296C35.1418 3.03484 32.5276 0.903668 29.4206 0.422434C25.585 -0.15701 21.4173 -0.127547 17.9781 0.432255C13.1354 1.21794 12.2568 2.85806 12.2568 5.89278V9.88997H23.71V11.2256H7.96054C4.6285 11.2256 1.71431 13.0622 0.803626 16.5487C-0.24634 20.5459 -0.289196 23.0404 0.803626 27.2144C1.61789 30.3178 3.55711 32.5374 6.88915 32.5374H10.8212V27.7447C10.8212 24.2779 14.0889 21.2235 17.9781 21.2235ZM17.271 3.21162C18.4816 3.21162 19.4566 4.10534 19.4566 5.21513C19.4566 6.32491 18.4816 7.21863 17.271 7.21863C16.0603 7.21863 15.0853 6.32491 15.0853 5.21513C15.0853 4.10534 16.0603 3.21162 17.271 3.21162Z" fill="#D2A8E1"/>
</svg>
