<svg width="48" height="48" viewBox="0 0 48 48" fill="none" xmlns="http://www.w3.org/2000/svg">
<path d="M21.266 11.4901C21.827 10.3777 18.953 9.99197 20.8893 11.0972C21.0688 11.1636 21.0288 11.5673 21.266 11.4901ZM5.59421 2.04014C4.37278 0.254926 7.8896 2.33977 6.65054 0.470228C5.60543 -0.460954 4.602 1.51983 5.59421 2.04014ZM8.15248 4.28287C9.88684 4.02451 7.71167 3.44678 7.80464 4.25955L8.15248 4.28287ZM6.78198 3.91506C7.15385 3.3499 6.12959 4.20213 6.78198 3.91506ZM9.54702 7.32222C10.6242 7.35093 9.08378 5.70387 10.3661 6.44845C10.1561 5.67875 8.87219 5.53521 8.24224 5.22841C7.8896 5.93173 8.96356 7.33119 9.54382 7.32222H9.54702ZM6.1937 7.16792C7.11538 6.38925 9.37391 7.62903 7.92486 6.39463C7.78541 6.25648 4.74786 7.33119 6.1937 7.16792ZM5.24798 9.19176C6.86212 8.57815 9.06775 7.88919 9.82914 9.49498C9.05332 8.45077 9.51657 7.4227 10.2491 8.94955C11.283 10.4943 11.8007 8.24802 11.1259 7.72771C11.8937 8.79525 12.7657 9.29762 11.6404 7.79409C12.8619 6.14883 9.19117 8.01119 8.35605 7.99145C7.95532 8.1924 4.20608 9.06079 5.24798 9.19176ZM8.25186 14.8147C8.64618 14.2693 7.71167 14.6694 8.25186 14.8147ZM7.31094 17.6334C7.21477 16.9839 7.03043 17.9779 7.31094 17.6334ZM6.51429 17.1813C7.41513 17.1149 7.92807 16.0671 6.33957 16.1281C3.87587 15.8428 8.51153 17.07 6.02379 16.7202C5.68878 16.966 6.49666 17.2512 6.51429 17.1849V17.1813ZM44.9845 44.5336C46.1001 44.5336 48.3651 44.1461 45.9366 44.1461C45.5567 44.2143 43.7166 44.1999 44.9845 44.5336ZM39.6371 41.0188C39.7574 40.1038 39.0969 41.1014 39.6371 41.0188ZM43.8288 44.225C43.8528 43.4284 43.2197 44.5839 43.8288 44.225ZM2.56147 15.3243C3.36133 14.6407 1.61735 15.0641 2.56147 15.3243ZM5.60543 17.7464C6.09592 17.1633 4.54269 17.5096 5.60543 17.7464ZM4.57475 17.4235C5.9709 16.4654 3.09044 16.5946 4.57475 17.4235ZM14.9008 10.1481C15.3672 8.77551 16.7153 9.59905 15.1172 9.87176C15.1508 10.0171 15.0691 10.5805 14.9008 10.1481ZM13.6185 10.157C15.8593 11.1259 13.5079 7.43526 13.6185 10.157ZM9.11103 10.9339C9.85158 9.93815 13.3075 10.2988 10.7781 10.837C10.1016 10.2647 9.58068 11.1725 9.11103 10.9339ZM8.79846 11.1672C9.24247 10.5841 8.92669 11.6821 8.79846 11.1672ZM7.58184 11.7162C7.64595 10.794 9.62076 12.2042 7.90883 12.0481L7.58184 11.7162ZM6.69061 11.6982C7.39109 11.1151 7.06249 12.0248 6.69061 11.6982ZM6.59604 12.6725C7.08333 10.6684 9.20079 14.3195 7.39269 12.9362C7.19874 12.7658 6.95189 12.6635 6.6826 12.6635C6.65214 12.6635 6.62168 12.6653 6.59123 12.6671H6.59443L6.59604 12.6725ZM1.59972 15.5199C1.41378 14.3195 1.43943 12.215 3.22669 12.9273C0.841536 13.4565 4.8777 16.2447 4.36797 14.0432C5.3698 14.0971 6.33155 13.3794 5.80259 14.4685C7.779 14.2227 9.14789 12.3065 11.0586 12.5738C12.7929 12.4123 14.3959 12.0373 15.9203 11.4704L15.7744 11.517C17.092 11.4094 18.3583 9.82152 17.637 8.88316C17.2875 8.85984 16.8788 8.84549 16.4669 8.84549C14.8751 8.84549 13.3251 9.05002 11.8376 9.43577L11.9755 9.40527C9.77624 9.91662 7.77739 10.8891 5.55574 11.3089C3.39179 11.6337 5.99013 12.206 5.3714 12.3316C4.24134 12.7712 6.71786 13.0672 5.22554 13.5283C4.30385 13.3309 3.3421 12.9775 3.73802 11.892C1.66544 12.1898 -0.15869 13.1551 1.4811 15.5145H1.60132L1.59972 15.5199ZM5.07807 18.125C5.18867 17.2728 4.25737 18.2937 5.07807 18.125ZM41.4981 44.4744C41.7626 43.5953 40.8297 44.5857 41.4981 44.4744ZM37.5437 42.1797C38.2041 41.4997 36.7022 41.9697 37.5437 42.1797ZM4.8248 19.5604C5.8619 19.1046 2.94137 18.6184 4.61642 19.4707L4.8248 19.5604ZM2.38195 17.9259C2.31142 17.2082 2.00205 18.0156 2.38195 17.9259ZM1.94114 18.299C1.90107 17.6944 1.65262 18.5269 1.94114 18.299ZM4.91777 20.461C4.77832 19.1495 3.2347 20.2637 4.91777 20.461ZM10.6867 25.2318C10.9303 24.9806 10.1064 25.0452 10.6867 25.2318ZM5.46758 21.4873C5.28004 21.76 5.22714 21.2702 5.46758 21.4873ZM4.63887 21.0334C4.6565 20.4736 3.31004 20.531 4.63887 21.0334ZM3.18822 20.6243C2.91251 18.8875 2.1367 20.3606 3.18822 20.6243ZM9.27132 25.352C9.28895 24.4388 8.63656 25.3179 9.27132 25.352ZM36.7599 44.5175C37.7858 44.2842 40.1212 45.1006 40.4979 44.2125C39.2556 44.1784 36.1908 43.2311 36.0466 44.4367L36.3191 44.4888L36.7599 44.5175ZM8.53718 25.1457C8.52275 24.8478 8.29353 25.2569 8.53718 25.1457ZM6.22095 23.8897C7.02081 23.5865 5.48521 23.6888 6.22095 23.8897ZM24.7091 37.8593C24.6947 36.9604 23.9172 38.0835 24.7091 37.8593ZM6.71465 25.1654C7.95692 24.6271 5.38423 24.785 6.71465 25.1654ZM30.7714 42.4739C31.2041 42.1151 30.2312 42.4291 30.7714 42.4739ZM26.2607 39.291C26.1806 38.943 25.9465 39.3574 26.2607 39.291ZM25.7125 38.8443C25.4961 38.2217 24.855 38.8299 25.7125 38.8443ZM14.3334 30.8099C14.3334 29.902 12.8811 30.4421 14.3334 30.8099ZM13.019 30.469C12.9933 30.3972 12.4868 29.9684 13.019 30.469ZM4.35835 24.4926C4.54269 23.6332 2.64964 19.7685 3.46552 22.5549C3.75726 23.138 3.7252 24.245 4.35835 24.4926ZM9.07737 28.6623C10.1129 28.9224 13.2161 31.5186 11.3856 28.8417C10.4479 28.5331 11.0105 25.9656 10.0535 26.4195C10.6947 27.6198 10.5825 28.1294 9.23285 27.374C7.54016 26.4482 8.28392 27.8316 8.61252 28.2119C8.1637 28.3285 9.21201 28.6515 9.07897 28.6605L9.07737 28.6623ZM35.0063 47.3451C35.7789 46.7674 34.067 47.1585 35.0063 47.3451ZM32.2412 45.2872C33.3905 44.2071 31.0246 45.7644 32.2412 45.2872ZM32.7814 45.5796C34.1936 44.4367 31.9239 45.3608 32.4849 45.7949L32.7814 45.5796ZM16.9702 35.0765C16.68 34.4108 16.5213 35.1823 16.9702 35.0765ZM16.0485 34.479C16.0084 33.9408 15.465 34.5239 16.0485 34.479ZM31.0118 45.0396C32.1162 44.243 30.7601 44.3668 30.8114 45.1114L31.0118 45.0396ZM8.36727 29.0552C8.69427 28.5134 7.52573 28.9852 8.36727 29.0552ZM31.3741 45.5617C32.5153 44.4672 30.6527 45.332 31.3741 45.5617ZM29.6397 44.7992C31.9126 43.1539 28.7068 44.0815 29.6397 44.7992ZM5.54292 27.9069C4.48979 26.2258 4.88732 25.4668 3.87106 24.0961C3.67871 23.0429 2.12868 20.6584 3.0696 23.1864C3.93037 24.663 4.18684 26.9506 5.54292 27.9087V27.9069ZM30.026 45.2657C31.2619 43.7998 28.8286 45.3536 30.026 45.2657ZM30.0244 45.7357C30.0308 45.4002 29.5435 45.8829 30.0244 45.7357ZM27.7002 43.9523C28.8174 42.9027 26.6182 44.4188 27.7002 43.9523ZM17.4911 36.8904C18.2156 37.6081 20.8204 37.4197 18.3727 36.9801C18.0089 36.3755 16.0677 36.5226 17.4911 36.8904ZM10.0584 31.8757C9.57427 30.975 8.3272 31.0593 10.0584 31.8757ZM8.75357 30.9158C8.55321 30.0348 7.35101 30.042 8.75357 30.9158ZM28.1666 44.5641C28.8174 43.8572 28.1922 45.6927 29.2486 44.3919C29.2582 43.4607 29.2149 42.9117 28.0352 44.042C27.7114 44.243 27.5671 45.1024 28.1666 44.5641ZM26.9436 43.9882C26.9836 43.3602 26.5573 44.5265 26.9436 43.9882ZM15.0451 35.9197C17.8694 36.937 13.6601 34.6728 15.0451 35.9197ZM12.7208 34.4252C13.4021 34.9922 15.2855 36.0364 13.6906 34.6405C14.2292 33.9408 12.6615 33.5694 13.1825 33.1029C11.86 32.1968 12.1406 32.2775 13.067 32.3045C11.4769 31.5114 13.2947 31.5688 13.2065 31.1616C12.5958 31.027 10.1625 29.9505 11.5956 31.2513C10.1417 30.4224 11.2493 31.5599 10.8101 31.4397C9.32261 30.9875 12.1325 32.7064 10.5745 32.2811C11.4257 33.0365 12.8699 34.2189 10.9352 33.0813C10.6787 33.4922 12.3169 34.113 12.7224 34.427L12.7208 34.4252ZM17.1096 37.6852C18.3423 38.0441 18.3359 37.4717 17.2202 37.3049C16.6191 36.6769 14.7245 36.0148 16.4188 37.2259C16.5326 37.5435 16.89 37.5381 17.108 37.687L17.1096 37.6852ZM14.8864 36.4293C14.9184 36.5854 14.6299 36.1799 14.8864 36.4293ZM15.9667 12.6348C16.1543 12.3764 16.0068 12.947 15.9667 12.6348ZM15.3208 16.9462C14.888 16.094 15.8658 13.1946 15.9731 14.996C15.5179 16.3972 15.8433 17.1813 16.1591 15.301C16.7458 13.8208 16.0325 18.2219 15.3176 16.948L15.3208 16.9462ZM14.6924 18.0891C15.0531 18.9952 14.5866 17.3715 14.6924 18.0891ZM15.0787 19.232C15.6638 20.1506 14.4488 17.4917 15.0787 19.232ZM15.3416 19.8833C15.4282 20.4252 15.3368 19.5083 15.3416 19.8833ZM10.8085 17.0593C11.5699 18.143 11.2205 16.0868 10.8085 17.0593ZM9.20239 15.9881C9.46046 15.8643 9.33864 16.3739 9.20239 15.9881ZM16.0677 21.9879C16.3017 19.8708 16.2745 23.2277 16.0677 21.9879ZM9.90928 17.9438C10.2475 17.3876 9.00844 15.4319 10.0872 17.2423C10.5521 17.6567 11.4337 17.9366 10.6546 18.1107C11.8761 19.3199 10.3549 18.4372 9.90928 17.9456V17.9438ZM16.4204 22.5692C16.5085 20.7086 16.9173 21.4586 16.4236 22.833L16.4204 22.5692ZM9.29055 18.5897C10.1225 18.3923 12.732 20.2242 10.3325 19.1136C10.068 18.7817 9.49893 18.936 9.29055 18.5897ZM16.8852 24.4675C17.1449 23.4322 16.9044 25.151 16.8852 24.4675ZM13.5159 22.0489C13.8108 22.3485 13.3844 20.2332 13.5159 22.0489ZM9.07737 19.4132C7.68122 17.2548 13.1376 21.595 9.9734 19.9605C9.6432 19.8636 9.24407 19.8259 9.07737 19.4132ZM16.781 25.2587C16.8884 24.7653 16.7954 25.8364 16.781 25.2587ZM17.1818 25.7037C17.3805 26.4877 17.2779 24.5536 17.1818 25.7037ZM14.8784 24.1786C13.9374 23.547 14.6315 19.7308 14.9521 22.3396C15.8674 22.0076 14.9024 23.6852 15.5836 23.6708C15.4778 24.7312 15.1717 25.1134 14.8832 24.1768L14.8784 24.1786ZM8.64938 20.1255C6.47421 17.9599 11.384 21.2595 9.00363 20.5292L8.64938 20.1255ZM10.0455 21.6201C10.847 22.1978 9.38833 20.2368 10.0455 21.6201ZM9.34345 21.3671C9.77784 20.8845 9.57427 21.8426 9.34345 21.3671ZM8.20217 21.4012C7.4536 20.5723 6.91181 19.8026 8.23583 20.8863C8.74716 20.9078 7.10256 19.1423 8.35605 20.3265C9.67846 20.5956 9.01165 22.7522 8.20217 21.403V21.4012ZM10.3741 23.2833C11.1067 24.7043 10.8069 22.2624 10.3741 23.2833ZM9.47168 22.937C9.93172 23.8628 9.55183 21.5842 9.47168 22.937ZM11.4818 24.4854C11.0618 23.6816 10.8133 22.7145 10.8133 21.6829C10.8133 21.6811 10.8133 21.6793 10.8133 21.6775C10.9656 22.5244 12.4243 25.3251 11.5282 22.8383C10.5392 20.7535 12.7096 23.5147 12.934 24.0351C13.0334 24.55 12.3233 23.8933 12.8058 25.1062C11.9242 23.7229 12.2848 25.8705 11.4818 24.4854ZM17.9832 29.3405C17.2779 27.5696 18.4833 28.3716 18.1387 29.6311L17.9832 29.3405ZM14.2131 27.9859C14.8607 28.569 13.9022 27.3633 14.2131 27.9859ZM18.6035 31.4056C18.9209 32.3565 18.8728 30.2752 18.6035 31.4056ZM12.3874 27.6342C12.8266 27.4996 12.6038 28.4721 12.3874 27.6342ZM20.1985 33.6698C21.1394 34.1274 19.4531 32.0551 20.1985 33.6698ZM20.8444 34.6405C21.0592 35.4479 20.8252 33.5909 20.8444 34.6405ZM28.2676 40.9542C28.6379 40.9291 28.2804 41.2682 28.2676 40.9542ZM21.7805 36.3414C21.1875 35.647 21.0336 34.3462 21.6748 35.4784C22.0034 35.6255 22.7263 37.6009 21.7805 36.3414ZM23.773 42.6372C25.3214 41.6019 24.8101 45.0629 26.3986 42.9278C27.9646 41.6504 25.0473 44.5121 26.9788 43.1593C28.3734 42.1115 30.4363 43.6527 31.7379 44.1569C32.6756 44.1048 33.5861 45.0647 34.5478 44.4816C36.396 43.9218 30.93 43.6527 32.3647 42.6659C32.1435 42.7215 31.8886 42.7538 31.6273 42.7538C30.337 42.7538 29.2085 41.9733 28.5978 40.8125L28.5882 40.7945C26.506 40.4088 24.7379 39.1439 23.5614 37.3605L23.547 37.3372C23.1623 36.6302 24.108 37.4358 23.2152 36.284C22.2438 35.1895 21.4151 33.9318 20.7675 32.5539L20.7306 32.4695C19.8154 31.9223 19.7096 30.3111 19.615 32.4157C19.623 31.0862 18.5074 30.1909 18.2365 30.5641C18.2333 29.2831 19.4291 29.9254 18.5891 28.978C18.4096 27.6503 17.8165 26.2652 17.637 24.7689C17.3613 24.0476 17.5969 22.5028 16.6897 24.1373C16.3595 25.8633 16.5791 22.0148 17.0936 23.2851C17.7684 21.9843 16.8532 22.1422 16.8131 22.3216C17.2539 21.2272 17.0936 19.6752 16.6993 20.2673C16.9333 19.1082 17.0696 16.0025 16.3482 16.5551C16.7842 15.344 17.1769 11.0111 15.2791 12.6635C14.2853 12.7084 13.3524 12.9488 12.4964 13.3489L12.5493 13.3274C14.5241 14.5456 12.3489 13.7669 11.5475 13.5732C11.4433 14.6981 10.6466 14.2119 9.65282 14.2227C11.2413 14.4416 8.88021 16.0384 7.96814 15.4194C6.78678 16.0509 8.9892 17.6316 7.99219 18.1214C8.1124 18.857 6.17928 17.8523 6.32995 19.5568C5.18226 19.0167 6.17447 21.5752 6.74832 20.7086C8.70068 21.3007 8.12202 22.6499 8.17011 23.931C7.85433 24.6774 6.59924 22.1763 7.8896 22.2911C6.87334 20.4377 6.76595 21.6183 5.918 22.4813C5.71763 22.5441 8.07874 23.7085 6.59924 24.2809C7.90082 24.5051 7.93769 25.7826 8.20217 26.59C8.98279 27.5032 8.8225 25.5816 9.76181 26.6797C9.16873 25.7019 6.62329 23.9256 8.67182 24.4962C8.66221 23.5094 8.30155 22.7181 8.9299 22.7379C9.55023 21.4783 8.27911 25.8472 9.68167 24.245C10.068 24.0548 10.1625 22.9819 10.863 24.3455C11.8745 25.4614 11.2269 26.2688 9.79868 25.2497C10.0535 26.2204 11.7094 26.5667 11.3984 28.0863C11.7286 29.4212 12.1902 28.9296 12.5926 28.8525C12.9084 30.1479 13.0879 29.1951 13.1039 28.5761C14.5465 28.9242 14.2099 29.8769 14.662 30.5497C15.6574 31.0521 13.2354 27.1372 14.9457 29.371C16.7442 31.1867 15.6205 31.9492 14.0048 31.6586C15.0258 31.5671 15.3576 33.2051 16.6352 33.1477C17.8005 33.7685 18.5875 36.153 16.5807 35.159C15.8834 34.4575 13.4165 33.5891 15.433 34.9258C17.4879 35.8677 19.1758 36.7899 20.8028 37.8162L20.5623 37.678C21.8447 38.7043 22.4009 39.8795 22.8866 40.1128C21.8094 40.6887 19.6358 39.6517 21.25 39.3323C20.2417 39.1277 19.1101 38.559 20.0734 39.9603C20.8941 40.73 22.9779 40.6456 23.353 40.7335C23.034 41.514 22.4922 41.5768 23.3658 41.6378C22.3929 42.2209 23.6784 42.3106 23.7682 42.6426L23.773 42.6372ZM18.0121 38.6738C19.6679 38.9107 16.0389 37.4107 17.6498 38.5393L18.0121 38.6738ZM22.4297 42.0307C23.8676 41.392 21.0272 41.7168 22.4297 42.0307ZM13.9358 36.1171C14.8575 36.0059 12.4531 35.4192 13.9358 36.1171ZM18.9546 39.6875C19.0748 39.1152 17.8967 39.5153 18.9546 39.6875ZM26.2944 45.0073C26.2751 44.5659 25.9273 45.1759 26.2944 45.0073ZM19.5525 40.3783C19.4435 40.4411 19.3249 40.0876 19.5525 40.3783ZM8.72152 32.6759C8.56764 32.0102 7.37185 31.4791 8.72152 32.6759ZM12.8474 35.6632C14.0897 35.5806 11.1483 35.0514 12.8474 35.6632ZM16.329 38.4747C16.2008 38.0459 15.6558 38.4567 16.329 38.4747ZM25.6035 44.8781C25.6596 44.0636 24.8966 45.4828 25.6035 44.8781ZM12.6439 35.9431C12.5605 35.4945 12.1117 35.9843 12.6439 35.9431ZM21.9456 42.5798C24.1096 42.6013 19.9933 42.2496 21.9456 42.5798ZM17.9928 40.023C20.277 40.7479 16.0741 38.4083 17.4302 39.7593L17.73 39.9118L17.9896 40.023H17.9928ZM19.9644 41.7796C20.3507 41.0404 18.3327 41.3543 19.9644 41.7796ZM13.4742 37.3443C14.4071 38.1463 17.2395 37.4466 14.904 36.8671C13.8429 36.2319 11.4449 35.7995 13.0767 37.2474L13.4742 37.3443ZM18.65 41.3185C19.5108 40.956 17.2555 40.9524 18.65 41.3185ZM16.7153 39.989C17.3164 39.5189 15.4714 39.6301 16.7153 39.989ZM14.4119 38.4872C14.3318 38.1122 13.1776 38.0728 14.4119 38.4872ZM22.2662 45.3356C23.0613 45.8954 26.9131 46.5682 24.4991 45.5671C24.0984 45.6604 20.0318 44.2807 22.263 45.3356H22.2662ZM17.318 41.8782C17.2908 41.5068 16.9654 42.0469 17.318 41.8782ZM16.329 41.3256C17.3052 40.6187 15.0675 41.3167 16.329 41.3256ZM20.6697 44.7184C21.0528 44.0869 19.4483 44.478 20.6697 44.7184ZM18.4112 43.3064C19.0363 42.6336 17.4414 42.8848 18.4112 43.3064ZM17.0904 42.6892C16.983 42.0953 16.6095 43.0211 17.0904 42.6892ZM16.0357 42.2586C16.4668 42.0433 15.4153 41.9895 16.0357 42.2586ZM8.11561 34.418C8.46986 35.1285 8.18133 34.0915 8.11561 34.418ZM13.7114 41.2951C15.6542 42.1007 13.7034 39.7665 12.8106 39.901C12.4179 39.1367 11.307 38.6523 12.0893 38.2414C10.6787 38.7886 10.613 36.1566 9.94615 36.5316C8.45543 36.0041 9.36589 34.1327 7.58985 32.9898C7.42796 31.7788 5.82343 30.7292 5.31049 28.9045C5.08448 27.9715 3.49758 25.2874 4.47376 27.7831C5.51246 30.2699 6.6826 32.4103 8.03386 34.3857L7.97936 34.3014C8.85296 36.4167 10.1369 38.1732 11.7238 39.5009L11.7559 39.5261C12.3361 40.1504 12.8939 41.1032 13.713 41.2969L13.7114 41.2951ZM17.5248 44.3129C19.304 45.3374 21.3686 46.1358 23.5406 46.588L23.6816 46.6131C25.7702 47.1496 28.1682 47.4564 30.6319 47.4564C31.911 47.4564 33.1741 47.3738 34.4148 47.2124L34.2641 47.2285C32.682 46.4283 31.0439 47.5425 29.4666 46.6562C28.9055 46.7279 28.2548 46.7674 27.596 46.7674C26.187 46.7674 24.8165 46.5826 23.5037 46.2327L23.6239 46.2596C21.0095 45.1939 18.836 44.0958 16.7442 42.8471L17.0311 43.0032C14.4728 41.959 18.3535 44.3434 19.0444 44.539C20.6425 45.5545 17.2875 44.0169 16.8131 43.5953C15.4746 42.7538 15.3031 42.9296 16.6816 43.7837C16.9606 43.9631 17.2347 44.1551 17.5232 44.3112L17.5248 44.3129ZM14.2901 42.743C12.3217 41.2269 10.6354 39.4633 9.2072 37.4592L9.17033 37.4071C6.48383 33.7165 4.29584 29.4212 2.80512 24.7563L2.72016 24.4549C1.82733 21.4173 1.51797 18.1591 0.368673 15.24C0.136248 14.7627 0 14.194 0 13.5893C0 11.8454 1.13968 10.3975 2.6304 10.1301L2.64803 10.1283C3.56971 9.93276 5.19668 8.95852 3.2347 9.65466C1.47629 11.099 1.30638 8.34311 3.10807 8.17087C3.8919 8.1619 4.52506 7.44961 4.52506 6.57046C4.52506 6.30671 4.46735 6.05732 4.36637 5.83664L4.36957 5.84561C3.04716 4.88213 7.57382 3.82177 5.29767 2.38462C2.92854 -0.482484 8.61733 -1.0315 7.21477 2.21956C6.87975 4.71886 11.1884 1.76025 10.1898 4.64709C11.206 6.03579 13.9951 4.96107 13.9262 6.90956C15.4089 7.0208 15.9154 8.41668 17.3052 8.52433C18.7478 9.25277 21.3558 9.82511 21.8447 11.6408C20.4165 12.9093 17.1096 9.02849 16.9509 12.5325C16.9878 18.0497 17.7203 23.3587 19.054 28.3788L18.9626 27.9751C20.0366 30.9606 21.5593 33.5102 23.4572 35.6381C25.1868 37.7947 27.2658 39.553 29.6028 40.8125L29.7214 40.8699C31.5808 41.8531 33.7416 42.6282 36.0017 43.0732L36.1572 43.0983C37.0548 42.3286 38.6417 39.4722 40.0395 40.6761C40.1052 42.0307 37.2584 43.5074 39.9048 43.3584C41.4597 42.8345 42.5368 44.7041 43.8176 43.0175C44.9957 44.5803 48.7177 42.0182 47.8778 45.2154C46.7445 46.0318 45.0903 45.5384 43.9538 46.6633C42.0816 45.6155 40.5893 47.5999 38.5151 47.3487C36.4778 47.7632 34.1327 48 31.7379 48C31.6674 48 31.5953 48 31.5247 48H31.5359C27.4517 47.9193 23.5438 47.2034 19.8506 45.9385L20.1504 46.0264C17.9159 45.1813 15.978 44.0689 14.2195 42.6892L14.2933 42.7448L14.2901 42.743Z" fill="#D2A8E1"/>
</svg>
