<svg width="48" height="48" viewBox="0 0 48 48" fill="none" xmlns="http://www.w3.org/2000/svg">
<path d="M0 0V48H48V0H0ZM26.1214 37.4357C26.1214 42.1071 23.3786 44.2393 19.3821 44.2393C15.7714 44.2393 13.6821 42.375 12.6107 40.1143L16.2857 37.8964C16.9929 39.15 17.6357 40.2107 19.1893 40.2107C20.6679 40.2107 21.6107 39.6321 21.6107 37.3714V22.0393H26.1214V37.4357ZM36.7929 44.2393C32.6036 44.2393 29.8929 42.2464 28.575 39.6321L32.25 37.5107C33.2143 39.0857 34.4786 40.2536 36.6964 40.2536C38.5607 40.2536 39.7607 39.3214 39.7607 38.025C39.7607 36.4821 38.5393 35.9357 36.4714 35.025L35.3464 34.5429C32.0893 33.1607 29.9357 31.4143 29.9357 27.7393C29.9357 24.3536 32.5179 21.7821 36.5357 21.7821C39.4071 21.7821 41.4643 22.7786 42.9429 25.3929L39.4286 27.6429C38.6571 26.2607 37.8214 25.7143 36.525 25.7143C35.2071 25.7143 34.3714 26.55 34.3714 27.6429C34.3714 28.9929 35.2071 29.5393 37.1464 30.3857L38.2714 30.8679C42.1071 32.5071 44.2607 34.1893 44.2607 37.9607C44.2607 42.0107 41.0679 44.2393 36.7929 44.2393Z" fill="#D2A8E1"/>
</svg>
